<?xml version="1.0" encoding="UTF-8" standalone="no"?><!DOCTYPE svg PUBLIC "-//W3C//DTD SVG 1.1//EN" "http://www.w3.org/Graphics/SVG/1.1/DTD/svg11.dtd"><svg width="100%" height="100%" viewBox="0 0 1001 1001" version="1.1" xmlns="http://www.w3.org/2000/svg" xmlns:xlink="http://www.w3.org/1999/xlink" xml:space="preserve" xmlns:serif="http://www.serif.com/" style="fill-rule:evenodd;clip-rule:evenodd;stroke-linejoin:round;stroke-miterlimit:2;"><g id="Capa_10"></g><g id="Logo"><path d="M357.968,87.791l9.739,-26.308l9.739,26.308c1.177,3.162 3.669,5.654 6.808,6.808l26.308,9.739l-26.308,9.739c-3.162,1.177 -5.654,3.669 -6.808,6.808l-9.739,26.308l-9.739,-26.308c-1.177,-3.162 -3.669,-5.654 -6.808,-6.808l-26.308,-9.739l26.308,-9.739c3.162,-1.177 5.654,-3.669 6.808,-6.808Z" style="fill:#3d1efe;fill-rule:nonzero;"/></g><g id="ICONO"><path d="M687.119,276.194c-1.038,-0.3 -2.146,-0.438 -3.231,-0.438l-367.621,0c-1.015,0 -2.031,0.115 -3.023,0.392c-26.031,7.085 -44.285,30.97 -44.078,57.947c0.208,27.162 19.039,50.978 45.555,57.439l0,429.583c0,15.993 2.123,62.447 35.608,103.894c55.362,68.516 145.525,60.324 152.702,59.562c10.477,0.438 88.755,2.377 141.902,-59.562c34.893,-40.639 39.67,-86.332 40.616,-102.74l0,-429.652c26.17,-6.9 44.701,-30.3 45.347,-56.955c0.669,-27.162 -17.4,-51.716 -43.754,-59.47l-0.023,0Zm-38.401,89.055c0,0 2.562,343.413 -1.569,457.599c-2.631,72.786 -72.878,125.494 -144.117,127.525c-74.309,2.1 -151.594,-51.462 -152.702,-127.525c-1.662,-113.148 0,-457.599 0,-457.599c-26.216,2.585 -44.931,-16.062 -44.516,-30.6c0.415,-14.169 19.223,-31.247 44.516,-28.385l299.197,0c23.654,-2.538 41.562,13.939 42.024,28.385c0.485,15.046 -17.862,33.462 -42.808,30.6l-0.023,-0Z" style="fill:#3d1efe;fill-rule:nonzero;"/><path d="M651.188,118.276l-58.824,0c-6.369,0 -11.539,5.169 -11.539,11.539l0,54.855l-45.324,0c-6.369,0 -11.539,5.169 -11.539,11.539l0,38.839l-37.362,0c-6.369,0 -11.539,5.169 -11.539,11.539l0,35.608l125.494,0l0,-30.047l14.377,0c6.369,0 11.539,-5.169 11.539,-11.539l0,-36.67l24.693,0c6.369,0 11.539,-5.169 11.539,-11.539l0,-62.562c0,-6.369 -5.169,-11.539 -11.539,-11.539l0.023,-0.023Z" style="fill:#3d1efe;fill-rule:nonzero;"/><path d="M452.147,232.87l0,20.647c0,2.76 -2.24,5 -5,5l-20.647,0c-2.76,0 -5,-2.24 -5,-5l0,-20.647c0,-2.76 2.24,-5 5,-5l20.647,0c2.76,0 5,2.24 5,5Z" style="fill:#3d1efe;"/><path d="M486.716,189.9l0,20.647c0,2.76 -2.24,5 -5,5l-20.647,0c-2.76,0 -5,-2.24 -5,-5l0,-20.647c0,-2.76 2.24,-5 5,-5l20.647,0c2.76,0 5,2.24 5,5Z" style="fill:#3d1efe;"/><path d="M591.279,72.852l0,34.77c0,2.76 -2.24,5 -5,5l-34.77,0c-2.76,0 -5,-2.24 -5,-5l0,-34.77c0,-2.76 2.24,-5 5,-5l34.77,0c2.76,0 5,2.24 5,5Z" style="fill:#3d1efe;"/><path d="M669.511,19.821l0,34.77c0,2.76 -2.24,5 -5,5l-34.77,0c-2.76,0 -5,-2.24 -5,-5l0,-34.77c0,-2.76 2.24,-5 5,-5l34.77,0c2.76,0 5,2.24 5,5Z" style="fill:#3d1efe;"/><path d="M713.912,72.852l0,34.77c0,2.76 -2.24,5 -5,5l-34.77,0c-2.76,0 -5,-2.24 -5,-5l0,-34.77c0,-2.76 2.24,-5 5,-5l34.77,0c2.76,0 5,2.24 5,5Z" style="fill:#3d1efe;"/></g><g id="Capa_8"><g><path d="M515.701,569.067c0.162,-1.985 -22.87,-7.2 -25.5,-7.523c-29.747,-3.739 -47.401,3.162 -50.47,-1.638c-3.531,-5.515 14.816,-26.1 103.132,-94.894c0.9,-0.715 2.238,-0.485 2.862,0.462l75.232,114.625l0,-214.849l-242.75,0l0,305.543c68.055,-68.724 124.64,-97.386 136.617,-101.055c0.138,-0.046 0.854,-0.277 0.9,-0.669l-0.023,0Zm-79.917,-115.732l15.508,-15.508c2.931,-2.931 7.685,-2.931 10.616,0l15.508,15.508c2.931,2.931 2.931,7.685 0,10.616l-15.508,15.508c-2.931,2.931 -7.685,2.931 -10.616,0l-15.508,-15.508c-2.931,-2.931 -2.931,-7.685 0,-10.616Z" style="fill:#3d1efe;fill-rule:nonzero;"/><path d="M578.748,588.152c-3.415,12.277 -7.108,59.262 -16.246,104.194c-8.7,42.808 -40.178,100.548 -146.125,158.195c-3.554,-11.585 -12.692,-46.593 1.777,-87.209c12.623,-35.424 36.254,-55.685 46.247,-63.347c-14.977,6.046 -37.085,17.262 -58.039,38.008c-10.8,10.685 -22.085,22.846 -28.154,32.216l0,47.747c0,3.739 0.438,7.454 1.269,11.1c13.246,57.416 65.355,98.148 123.556,96.532c55.778,-1.546 104.125,-41.631 116.702,-96.648c0.831,-3.6 1.246,-7.269 1.246,-10.962l0,-200.957c-13.754,-15.762 -38.885,-40.893 -42.208,-28.87l-0.023,0Z" style="fill:#3d1efe;fill-rule:nonzero;"/></g></g></svg>